<svg width="40" height="40" viewBox="0 0 40 40" fill="none" xmlns="http://www.w3.org/2000/svg">
<g clip-path="url(#clip0_101_187)">
<path d="M20 2.22223C16.4838 2.22223 13.0467 3.26488 10.1231 5.21832C7.19961 7.17177 4.92099 9.94828 3.57543 13.1967C2.22987 16.4452 1.87781 20.0197 2.56377 23.4683C3.24973 26.9168 4.9429 30.0845 7.42917 32.5708C9.91543 35.0571 13.0831 36.7502 16.5317 37.4362C19.9802 38.1222 23.5548 37.7701 26.8032 36.4245C30.0517 35.079 32.8282 32.8004 34.7816 29.8768C36.7351 26.9533 37.7777 23.5161 37.7777 20C37.7777 15.285 35.9047 10.7632 32.5707 7.42922C29.2368 4.09524 24.7149 2.22223 20 2.22223ZM31.6111 14.0333L17.0111 28.6222L8.38884 20C8.09416 19.7053 7.92861 19.3056 7.92861 18.8889C7.92861 18.4721 8.09416 18.0725 8.38884 17.7778C8.68353 17.4831 9.08321 17.3175 9.49995 17.3175C9.9167 17.3175 10.3164 17.4831 10.6111 17.7778L17.0333 24.2L29.4111 11.8333C29.557 11.6874 29.7302 11.5717 29.9208 11.4927C30.1115 11.4137 30.3158 11.3731 30.5222 11.3731C30.7285 11.3731 30.9329 11.4137 31.1235 11.4927C31.3142 11.5717 31.4874 11.6874 31.6333 11.8333C31.7792 11.9793 31.8949 12.1525 31.9739 12.3431C32.0529 12.5338 32.0935 12.7381 32.0935 12.9445C32.0935 13.1508 32.0529 13.3551 31.9739 13.5458C31.8949 13.7364 31.7792 13.9096 31.6333 14.0556L31.6111 14.0333Z" fill="#219653"/>
</g>
<defs>
<clipPath id="clip0_101_187">
<rect width="40" height="40" fill="white"/>
</clipPath>
</defs>
</svg>
